<svg width="112" height="26" viewBox="0 0 112 26" fill="none" xmlns="http://www.w3.org/2000/svg">
<path d="M0.104 26V0.799998H9.536C11.672 0.799998 13.508 1.148 15.044 1.844C16.58 2.516 17.756 3.5 18.572 4.796C19.412 6.068 19.832 7.616 19.832 9.44C19.832 11.216 19.412 12.752 18.572 14.048C17.756 15.32 16.58 16.304 15.044 17C13.508 17.696 11.672 18.044 9.536 18.044H1.58L2.768 16.784V26H0.104ZM2.768 17L1.58 15.704H9.464C11.984 15.704 13.892 15.164 15.188 14.084C16.508 12.98 17.168 11.432 17.168 9.44C17.168 7.424 16.508 5.864 15.188 4.76C13.892 3.656 11.984 3.104 9.464 3.104H1.58L2.768 1.844V17ZM25.5923 26V0.799998H28.2563V26H25.5923ZM32.9636 26L43.2956 12.032V14.084L33.5756 0.799998H36.6356L44.8076 11.888L43.6196 11.924L51.7916 0.799998H54.6716L45.0596 13.904V12.032L55.3556 26H52.2596L43.5476 14.156H44.6636L36.0236 26H32.9636ZM59.2017 26V0.799998H61.8657V26H59.2017ZM72.4409 13.004H85.7609V15.308H72.4409V13.004ZM72.7289 26H70.0649V0.799998H87.3449V3.104H72.7289V26ZM98.8582 26V16.64L99.4702 18.296L88.7782 0.799998H91.6222L101.018 16.172H99.5062L108.902 0.799998H111.566L100.874 18.296L101.486 16.64V26H98.8582Z" fill="#7BFFE9"/>
</svg>
